<?xml version="1.0" encoding="UTF-8" standalone="no"?>
<svg
   xmlns:dc="http://purl.org/dc/elements/1.1/"
   xmlns:cc="http://creativecommons.org/ns#"
   xmlns:rdf="http://www.w3.org/1999/02/22-rdf-syntax-ns#"
   xmlns:svg="http://www.w3.org/2000/svg"
   xmlns="http://www.w3.org/2000/svg"
   viewBox="0 0 315 449.12"
   height="449.12"
   width="315"
   xml:space="preserve"
   id="svg2"
   version="1.1"><metadata
     id="metadata8"><rdf:RDF><cc:Work
         rdf:about=""><dc:format>image/svg+xml</dc:format><dc:type
           rdf:resource="http://purl.org/dc/dcmitype/StillImage" /></cc:Work></rdf:RDF></metadata><defs
     id="defs6" /><g
     transform="matrix(1.3333333,0,0,-1.3333333,0,449.12)"
     id="g10"><g
       transform="scale(0.1)"
       id="g12"><path
         id="path14"
         style="fill:#ed164d;fill-opacity:1;fill-rule:nonzero;stroke:none"
         d="m 1642.14,3037.64 0.61,-0.07 c 371.97,-56.18 351.64,-335.11 351.64,-335.11 L 810.773,1486.74 c 226.197,-20.47 681.647,-35.33 1364.147,62.05 118.55,184.13 187.61,403.13 187.61,638.39 0,652.35 -528.95,1181.24 -1181.34,1181.24 -334.795,0 -636.823,-139.53 -851.768,-363.34 692.748,86.24 1126.478,55.89 1312.718,32.56" /><path
         id="path16"
         style="fill:#ed164d;fill-opacity:1;fill-rule:nonzero;stroke:none"
         d="m 716.852,1378.29 -0.614,0.08 c -371.968,56.17 -351.629,335.1 -351.629,335.1 L 1548.31,2929.19 C 1326.03,2949.31 882.348,2964.07 219.156,2872.12 81.3438,2678.89 0,2442.6 0,2187.18 c 0,-652.41 528.84,-1181.3 1181.19,-1181.3 357.95,0 678.48,159.43 895.13,410.91 -720.06,-93.55 -1169.07,-62.35 -1359.468,-38.5" /><path
         id="path18"
         style="fill:#040606;fill-opacity:1;fill-rule:nonzero;stroke:none"
         d="M 189.754,514.41 H 14.1992 v 92.641 H 338.418 V 519.648 L 143.438,299.262 H 349.625 V 205.879 H 0 v 92.641 l 189.754,215.89" /><path
         id="path20"
         style="fill:#040606;fill-opacity:1;fill-rule:nonzero;stroke:none"
         d="M 398.938,205.879 V 607.051 H 512.883 V 205.879 H 398.938" /><path
         id="path22"
         style="fill:#040606;fill-opacity:1;fill-rule:nonzero;stroke:none"
         d="m 522.41,705.891 c 0,-36.731 -29.773,-66.5 -66.5,-66.5 -36.726,0 -66.5,29.769 -66.5,66.5 0,36.718 29.774,66.5 66.5,66.5 36.727,0 66.5,-29.782 66.5,-66.5" /><path
         id="path24"
         style="fill:#040606;fill-opacity:1;fill-rule:nonzero;stroke:none"
         d="m 1253.1,294.969 c -58.67,0 -98.76,50.383 -98.76,115.722 0,63.86 40.09,112.008 98.76,112.008 58.65,0 99.49,-47.41 99.49,-112.008 0,-66.082 -40.84,-115.722 -99.49,-115.722 z m 152.83,262.562 c -36.37,38.117 -78.97,57.168 -127.8,57.168 -48.84,0 -88.69,-17.187 -119.57,-51.57 V 742.121 H 1046.45 V 205.879 h 112.11 v 53.082 c 31.38,-39.359 70.87,-59.039 118.45,-59.039 47.58,0 90.06,20.168 127.43,60.527 37.37,40.36 56.05,90.43 56.05,150.223 0,59.789 -18.19,108.738 -54.56,146.859" /><path
         id="path26"
         style="fill:#040606;fill-opacity:1;fill-rule:nonzero;stroke:none"
         d="m 1675.72,513.27 c 51.11,17.91 100.03,-0.149 126.8,-42.188 L 1603.2,407.141 c -2.74,46.871 23.47,88.929 72.52,106.129 z m 23.11,-220.079 c -27.42,2.188 -47.39,13.051 -67.2,35.969 l 280.71,89.328 c -0.39,-0.328 -0.53,67.332 -43.03,121.043 -35.94,45.43 -84.02,69.449 -144.82,74.321 -60.81,4.867 -109.07,-11.18 -156.31,-47.801 -44.95,-34.852 -67.43,-84.153 -72.08,-142.219 -4.65,-58.082 11.53,-108.59 48.57,-151.512 37.02,-42.941 85.93,-66.828 146.75,-71.691 105.55,-8.449 177.12,61.711 185.16,71.441 l -65.06,68.629 c -4.78,-7.828 -50.64,-52.48 -112.69,-47.508" /><path
         id="path28"
         style="fill:#040606;fill-opacity:1;fill-rule:nonzero;stroke:none"
         d="m 2125.91,513.27 c 51.11,17.91 100.03,-0.149 126.8,-42.188 l -199.32,-63.941 c -2.74,46.871 23.47,88.929 72.52,106.129 z m 23.11,-220.079 c -27.42,2.188 -47.39,13.051 -67.2,35.969 l 280.71,89.328 c -0.39,-0.328 -0.53,67.332 -43.03,121.043 -35.94,45.43 -84.02,69.449 -144.82,74.321 -60.81,4.867 -109.07,-11.18 -156.31,-47.801 -44.95,-34.852 -67.43,-84.153 -72.08,-142.219 -4.65,-58.082 11.54,-108.59 48.57,-151.512 37.02,-42.941 85.93,-66.828 146.75,-71.691 105.55,-8.449 177.12,61.711 185.16,71.441 l -65.06,68.629 c -4.78,-7.828 -50.64,-52.48 -112.69,-47.508" /><path
         id="path30"
         style="fill:#040606;fill-opacity:1;fill-rule:nonzero;stroke:none"
         d="m 772.621,293.941 c -58.66,0 -98.758,50.379 -98.758,115.719 0,63.86 40.098,112.012 98.758,112.012 58.656,0 99.496,-47.402 99.496,-112.012 0,-66.078 -40.84,-115.719 -99.496,-115.719 z m 103.516,-32.66 V 247.449 C 875.922,202.602 865.941,148.5 820.98,120.191 725.66,60.1797 626.133,163.23 626.133,163.23 L 554.281,88.7422 C 554.281,88.7422 623.996,0 758.484,0 816.82,0 867.41,16.6602 906.91,51.3398 954.25,92.9102 984.992,162.398 984.992,271.719 V 607.051 H 872.117 V 544.18 c -26.554,40.101 -72.59,70.519 -126.793,70.519 -112.121,0 -188.148,-85.48 -188.148,-208.75 0,-121.039 73.144,-207.051 185.265,-207.051 55.696,0 98.723,22.274 133.696,62.383" /></g></g></svg>