<?xml version="1.0" encoding="utf-8"?>
<!-- Generator: Adobe Illustrator 15.0.0, SVG Export Plug-In . SVG Version: 6.00 Build 0)  -->
<!DOCTYPE svg PUBLIC "-//W3C//DTD SVG 1.1//EN" "http://www.w3.org/Graphics/SVG/1.1/DTD/svg11.dtd">
<svg version="1.1" id="Layer_1" xmlns="http://www.w3.org/2000/svg" xmlns:xlink="http://www.w3.org/1999/xlink" x="0px" y="0px"
	 width="134.246px" height="54px" viewBox="5.5 10.5 134.246 54" enable-background="new 5.5 10.5 134.246 54" xml:space="preserve"
	>
<polygon fill="#563632" points="5.5,64.5 5.5,10.5 53.5,10.5 53.5,16.5 59.5,16.5 59.5,64.5 "/>
<polygon fill="#D6C9C1" points="17.5,52.5 17.5,22.5 35.5,22.5 35.5,28.5 23.5,28.5 23.5,34.501 29.5,34.501 29.5,40.595 
	23.5,40.595 23.5,52.5 "/>
<rect x="41.5" y="34.501" fill="#D6C9C1" width="6" height="17.999"/>
<rect x="41.574" y="22.5" fill="#FFFFFF" width="5.926" height="6.096"/>
<rect x="53.5" y="10.5" fill="#FFFFFF" width="6" height="6"/>
<g>
	<path fill="#231F20" d="M82.392,37.145H72.016v5.708h9.131v2.231h-9.131v8.455H69.5V34.916h12.892V37.145z"/>
	<path fill="#231F20" d="M87.138,37.51h-2.281v-2.594h2.281V37.51z M87.138,53.539h-2.281V39.972h2.281V53.539z"/>
	<path fill="#231F20" d="M101.848,53.539h-2.153v-1.866h-0.051c-0.901,1.503-2.197,2.256-3.894,2.256
		c-1.797,0-3.238-0.684-4.318-2.051c-1.081-1.364-1.622-3.181-1.622-5.445c0-2.058,0.51-3.713,1.528-4.968
		c1.016-1.255,2.371-1.88,4.061-1.88c1.07,0,1.984,0.276,2.743,0.83c0.433,0.312,0.881,0.805,1.345,1.478l0.052-0.18v-6.797h2.309
		V53.539z M99.539,47.055c0-3.613-1.254-5.42-3.762-5.42c-2.404,0-3.605,1.633-3.605,4.901c0,1.728,0.318,3.064,0.958,4.01
		c0.639,0.94,1.54,1.412,2.698,1.412c1.177,0,2.088-0.433,2.736-1.299C99.214,49.798,99.539,48.594,99.539,47.055z"/>
	<path fill="#231F20" d="M116.035,48.792c0,1.644-0.547,2.924-1.635,3.841c-1.02,0.865-2.314,1.296-3.889,1.296
		c-1.643,0-2.977-0.459-3.994-1.376c-1.021-0.914-1.533-2.169-1.533-3.761v-8.82h2.282v8.665c0,1.055,0.287,1.872,0.859,2.452
		c0.568,0.579,1.365,0.869,2.386,0.869s1.816-0.29,2.387-0.869c0.57-0.58,0.854-1.397,0.854-2.452v-8.665h2.282V48.792z"/>
	<path fill="#231F20" d="M126.334,42.022h-0.855c-1.005,0-1.835,0.341-2.49,1.024c-0.658,0.684-0.987,1.552-0.987,2.605v7.887
		h-2.282V39.972h2.155v2.258h0.05c0.381-0.622,0.71-1.081,0.987-1.374c0.776-0.848,1.729-1.271,2.853-1.271
		c0.208,0,0.398,0.025,0.57,0.077V42.022z"/>
	<path fill="#231F20" d="M129.838,47.494c0.031,0.85,0.126,1.514,0.283,1.997c0.501,1.645,1.686,2.467,3.555,2.467
		c0.915,0,1.715-0.251,2.398-0.752c0.682-0.502,1.084-1.142,1.207-1.921h2.282c-0.295,1.471-0.961,2.61-1.997,3.425
		c-1.038,0.812-2.328,1.219-3.865,1.219c-1.972,0-3.515-0.613-4.631-1.841c-1.117-1.229-1.674-2.924-1.674-5.085
		c0-2.267,0.578-4.068,1.737-5.409c1.161-1.339,2.727-2.009,4.696-2.009c2.182,0,3.769,0.891,4.772,2.671
		c0.365,0.657,0.614,1.27,0.751,1.842c0.173,0.777,0.304,1.91,0.393,3.396H129.838z M137.021,43.84
		c-0.537-1.47-1.635-2.205-3.295-2.205c-1.109,0-2.011,0.365-2.71,1.102c-0.702,0.734-1.094,1.716-1.179,2.944h7.545
		C137.295,44.868,137.174,44.253,137.021,43.84z M133.755,38.157h-1.742l2.311-3.657h2.802L133.755,38.157z"/>
</g>
</svg>
